name Walk6.mot
datacolumns 19
datarows 30
range 1.98500000 2.13000000
endheader

                time	   L_ground_force_vx	   L_ground_force_vy	   L_ground_force_vz	   L_ground_force_px	   L_ground_force_py	   L_ground_force_pz	   R_ground_force_vx	   R_ground_force_vy	   R_ground_force_vz	   R_ground_force_px	   R_ground_force_py	   R_ground_force_pz	   L_ground_torque_x	   L_ground_torque_y	   L_ground_torque_z	   R_ground_torque_x	   R_ground_torque_y	   R_ground_torque_z	
          1.98500000	          0.00553282	          0.01919463	         -0.00174797	         -0.00019287	          0.00000000	         -0.00006139	        -16.57703746	        506.66487833	        -40.72488156	          0.21454406	          0.00000000	          0.07717981	          0.00000000	          0.00013042	          0.00000000	          0.00000000	          1.05980903	          0.00000000	
          1.99000000	          0.00113960	          0.00554998	         -0.00142695	         -0.00014149	          0.00000000	         -0.00004564	        -14.61778949	        499.46902157	        -40.22304290	          0.21671130	          0.00000000	          0.07764713	          0.00000000	          0.00009918	          0.00000000	          0.00000000	          1.05511576	          0.00000000	
          1.99500000	         -0.00176781	         -0.00363901	         -0.00110824	         -0.00009735	          0.00000000	         -0.00003193	        -12.81549553	        493.08723841	        -39.73192153	          0.21890557	          0.00000000	          0.07809243	          0.00000000	          0.00007130	          0.00000000	          0.00000000	          1.05743545	          0.00000000	
          2.00000000	         -0.00349247	         -0.00924393	         -0.00081621	         -0.00006135	          0.00000000	         -0.00002062	        -11.15798495	        487.52122487	        -39.24702309	          0.22111433	          0.00000000	          0.07851252	          0.00000000	          0.00004778	          0.00000000	          0.00000000	          1.06704491	          0.00000000	
          2.00500000	         -0.00432224	         -0.01210717	         -0.00056438	         -0.00003340	          0.00000000	         -0.00001173	         -9.63158959	        482.77025716	        -38.76442190	          0.22332409	          0.00000000	          0.07890695	          0.00000000	          0.00002892	          0.00000000	          0.00000000	          1.08361375	          0.00000000	
          2.01000000	         -0.00451253	         -0.01298578	         -0.00035825	         -0.00001284	          0.00000000	         -0.00000510	         -8.22165099	        478.83105904	        -38.28286161	          0.22552255	          0.00000000	          0.07927673	          0.00000000	          0.00001454	          0.00000000	          0.00000000	          1.10620474	          0.00000000	
          2.01500000	         -0.00427766	         -0.01252220	         -0.00019773	          0.00000136	          0.00000000	         -0.00000045	         -6.91192144	        475.69600647	        -37.80481118	          0.22769797	          0.00000000	          0.07962281	          0.00000000	          0.00000416	          0.00000000	          0.00000000	          1.13332234	          0.00000000	
          2.02000000	         -0.00378874	         -0.01123456	         -0.00007916	          0.00001036	          0.00000000	          0.00000257	         -5.68360478	        473.35301103	        -37.33653893	          0.22983739	          0.00000000	          0.07994636	          0.00000000	         -0.00000282	          0.00000000	          0.00000000	          1.16298221	          0.00000000	
          2.02500000	         -0.00317556	         -0.00952030	          0.00000314	          0.00001531	          0.00000000	          0.00000430	         -4.51558072	        471.78457096	        -36.88862408	          0.23192845	          0.00000000	          0.08024905	          0.00000000	         -0.00000707	          0.00000000	          0.00000000	          1.19302150	          0.00000000	
          2.03000000	         -0.00253119	         -0.00766804	          0.00005567	          0.00001727	          0.00000000	          0.00000507	         -3.38556554	        470.96631802	        -36.47629669	          0.23396233	          0.00000000	          0.08053412	          0.00000000	         -0.00000924	          0.00000000	          0.00000000	          1.22105607	          0.00000000	
          2.03500000	         -0.00191778	         -0.00587377	          0.00008496	          0.00001717	          0.00000000	          0.00000517	         -2.27212341	        470.86728699	        -36.11814000	          0.23593457	          0.00000000	          0.08080626	          0.00000000	         -0.00000990	          0.00000000	          0.00000000	          1.24453192	          0.00000000	
          2.04000000	         -0.00137274	         -0.00425860	          0.00009702	          0.00001574	          0.00000000	          0.00000482	         -1.15698561	        471.44961168	        -35.83492094	          0.23784452	          0.00000000	          0.08107057	          0.00000000	         -0.00000954	          0.00000000	          0.00000000	          1.26131568	          0.00000000	
          2.04500000	         -0.00091465	         -0.00288602	          0.00009708	          0.00001358	          0.00000000	          0.00000421	         -0.02699253	        472.67143181	        -35.64666724	          0.23969442	          0.00000000	          0.08133143	          0.00000000	         -0.00000855	          0.00000000	          0.00000000	          1.26971695	          0.00000000	
          2.05000000	         -0.00054855	         -0.00177756	          0.00008944	          0.00001112	          0.00000000	          0.00000349	          1.12599493	        474.49009607	        -35.56969199	          0.24148792	          0.00000000	          0.08159120	          0.00000000	         -0.00000725	          0.00000000	          0.00000000	          1.26860828	          0.00000000	
          2.05500000	         -0.00027039	         -0.00092614	          0.00007747	          0.00000867	          0.00000000	          0.00000275	          2.30567782	        476.86470820	        -35.61537594	          0.24322950	          0.00000000	          0.08184990	          0.00000000	         -0.00000583	          0.00000000	          0.00000000	          1.25781638	          0.00000000	
          2.06000000	         -0.00007063	         -0.00030690	          0.00006366	          0.00000641	          0.00000000	          0.00000206	          3.51172399	        479.76056851	        -35.78961050	          0.24492431	          0.00000000	          0.08210658	          0.00000000	         -0.00000447	          0.00000000	          0.00000000	          1.23792674	          0.00000000	
          2.06500000	          0.00006306	          0.00011449	          0.00004977	          0.00000445	          0.00000000	          0.00000146	          4.74070469	        483.15191158	        -36.09279363	          0.24657614	          0.00000000	          0.08235961	          0.00000000	         -0.00000324	          0.00000000	          0.00000000	          1.21020373	          0.00000000	
          2.07000000	          0.00014381	          0.00037565	          0.00003693	          0.00000284	          0.00000000	          0.00000095	          5.98683763	        487.02485374	        -36.51971493	          0.24818914	          0.00000000	          0.08260586	          0.00000000	         -0.00000219	          0.00000000	          0.00000000	          1.17637437	          0.00000000	
          2.07500000	          0.00018421	          0.00051343	          0.00002578	          0.00000159	          0.00000000	          0.00000055	          7.24222489	        491.37766046	        -37.06034003	          0.24976702	          0.00000000	          0.08284147	          0.00000000	         -0.00000135	          0.00000000	          0.00000000	          1.13842821	          0.00000000	
          2.08000000	          0.00019556	          0.00056117	          0.00001658	          0.00000066	          0.00000000	          0.00000025	          8.49828489	        496.22026124	        -37.70118377	          0.25131311	          0.00000000	          0.08306233	          0.00000000	         -0.00000070	          0.00000000	          0.00000000	          1.09846575	          0.00000000	
          2.08500000	          0.00018736	          0.00054741	          0.00000938	          0.00000001	          0.00000000	          0.00000004	          9.74765477	        501.56947726	        -38.42638162	          0.25283160	          0.00000000	          0.08326420	          0.00000000	         -0.00000023	          0.00000000	          0.00000000	          1.05862613	          0.00000000	
          2.09000000	          0.00016729	          0.00049529	          0.00000401	         -0.00000041	          0.00000000	         -0.00000010	         10.98563675	        507.43960504	        -39.21891522	          0.25432520	          0.00000000	          0.08344225	          0.00000000	          0.00000009	          0.00000000	          0.00000000	          1.02124973	          0.00000000	
          2.09500000	          0.00014119	          0.00042269	          0.00000026	         -0.00000064	          0.00000000	         -0.00000018	         12.21079684	        513.84104560	        -40.06194753	          0.25579592	          0.00000000	          0.08359201	          0.00000000	          0.00000029	          0.00000000	          0.00000000	          0.98864036	          0.00000000	
          2.10000000	          0.00011328	          0.00034271	         -0.00000217	         -0.00000074	          0.00000000	         -0.00000022	         13.42502294	        520.78249191	        -40.93935602	          0.25724647	          0.00000000	          0.08371146	          0.00000000	          0.00000039	          0.00000000	          0.00000000	          0.96260401	          0.00000000	
          2.10500000	          0.00008643	          0.00026431	         -0.00000356	         -0.00000075	          0.00000000	         -0.00000022	         14.63409731	        528.26605780	        -41.83620701	          0.25867978	          0.00000000	          0.08380007	          0.00000000	          0.00000043	          0.00000000	          0.00000000	          0.94437819	          0.00000000	
          2.11000000	          0.00006237	          0.00019314	         -0.00000417	         -0.00000069	          0.00000000	         -0.00000021	         15.84842434	        536.27904673	        -42.73910394	          0.26009709	          0.00000000	          0.08385704	          0.00000000	          0.00000042	          0.00000000	          0.00000000	          0.93481303	          0.00000000	
          2.11500000	          0.00004201	          0.00013222	         -0.00000423	         -0.00000060	          0.00000000	         -0.00000019	         17.08208049	        544.79399195	        -43.63631018	          0.26149996	          0.00000000	          0.08388158	          0.00000000	          0.00000038	          0.00000000	          0.00000000	          0.93415401	          0.00000000	
          2.12000000	          0.00002563	          0.00008269	         -0.00000393	         -0.00000050	          0.00000000	         -0.00000016	         18.35073288	        553.77246865	        -44.51792765	          0.26289042	          0.00000000	          0.08387434	          0.00000000	          0.00000032	          0.00000000	          0.00000000	          0.94211866	          0.00000000	
          2.12500000	          0.00001310	          0.00004439	         -0.00000343	         -0.00000039	          0.00000000	         -0.00000012	         19.67056567	        563.16482630	        -45.37526830	          0.26426951	          0.00000000	          0.08383698	          0.00000000	          0.00000026	          0.00000000	          0.00000000	          0.95804255	          0.00000000	
          2.13000000	          0.00000403	          0.00001632	         -0.00000284	         -0.00000029	          0.00000000	         -0.00000009	         21.05864595	        572.90478492	        -46.19970600	          0.26563555	          0.00000000	          0.08377103	          0.00000000	          0.00000020	          0.00000000	          0.00000000	          0.98113584	          0.00000000	
